<mxfile modified="2019-10-25T07:13:23.377Z" host="www.draw.io" agent="Mozilla/5.0 (Windows NT 10.0; Win64; x64) AppleWebKit/537.36 (KHTML, like Gecko) Chrome/77.0.3865.90 Safari/537.36" etag="zGpdVHaX7DJvjRD7ZXAD" version="12.1.4" type="github" pages="1">
  <diagram name="Page-1" id="74e2e168-ea6b-b213-b513-2b3c1d86103e">
    <mxGraphModel dx="1264" dy="485" grid="1" gridSize="10" guides="1" tooltips="1" connect="1" arrows="1" fold="1" page="1" pageScale="1" pageWidth="1100" pageHeight="850" background="#ffffff" math="0" shadow="0">
      <root>
        <mxCell id="0"/>
        <mxCell id="1" parent="0"/>
        <mxCell id="77e6c97f196da883-1" value="CTI-CDR" style="swimlane;html=1;childLayout=stackLayout;startSize=20;rounded=0;shadow=0;labelBackgroundColor=none;strokeColor=#000000;strokeWidth=1;fillColor=#ffffff;fontFamily=Verdana;fontSize=8;fontColor=#000000;align=center;" parent="1" vertex="1">
          <mxGeometry x="70" y="39" width="1090" height="940" as="geometry"/>
        </mxCell>
        <mxCell id="77e6c97f196da883-2" value="CTI" style="swimlane;html=1;startSize=20;" parent="77e6c97f196da883-1" vertex="1">
          <mxGeometry y="20" width="160" height="920" as="geometry"/>
        </mxCell>
        <mxCell id="PAHui-X02Ao2DcyTZwbI-2" value="&lt;b&gt;开始&lt;/b&gt;&lt;br&gt;推送消息" style="strokeWidth=2;html=1;shape=mxgraph.flowchart.terminator;whiteSpace=wrap;rounded=1;shadow=0;fontFamily=Verdana;fontSize=8;fillColor=#d5e8d4;strokeColor=#82b366;" parent="77e6c97f196da883-2" vertex="1">
          <mxGeometry x="20" y="65" width="100" height="60" as="geometry"/>
        </mxCell>
        <mxCell id="77e6c97f196da883-26" style="edgeStyle=orthogonalEdgeStyle;rounded=1;html=1;labelBackgroundColor=none;startArrow=none;startFill=0;startSize=5;endArrow=classicThin;endFill=1;endSize=5;jettySize=auto;orthogonalLoop=1;strokeColor=#000000;strokeWidth=1;fontFamily=Verdana;fontSize=8;fontColor=#000000;" parent="77e6c97f196da883-1" target="77e6c97f196da883-11" edge="1">
          <mxGeometry relative="1" as="geometry">
            <mxPoint x="120" y="115" as="sourcePoint"/>
          </mxGeometry>
        </mxCell>
        <mxCell id="77e6c97f196da883-3" value="MQ" style="swimlane;html=1;startSize=20;" parent="77e6c97f196da883-1" vertex="1">
          <mxGeometry x="160" y="20" width="150" height="920" as="geometry"/>
        </mxCell>
        <mxCell id="77e6c97f196da883-11" value="消息队列" style="rounded=1;whiteSpace=wrap;html=1;shadow=0;labelBackgroundColor=none;strokeColor=#000000;strokeWidth=1;fillColor=#ffffff;fontFamily=Verdana;fontSize=8;fontColor=#000000;align=center;" parent="77e6c97f196da883-3" vertex="1">
          <mxGeometry x="30" y="65" width="100" height="60" as="geometry"/>
        </mxCell>
        <mxCell id="Ku13lfJRVUN4UdWw_vCt-11" value="" style="ellipse;html=1;shape=endState;fillColor=#000000;strokeColor=#ff0000;" vertex="1" parent="77e6c97f196da883-3">
          <mxGeometry x="65" y="51" width="30" height="30" as="geometry"/>
        </mxCell>
        <mxCell id="77e6c97f196da883-4" value="CDR2ADS" style="swimlane;html=1;startSize=20;" parent="77e6c97f196da883-1" vertex="1">
          <mxGeometry x="310" y="20" width="460" height="920" as="geometry"/>
        </mxCell>
        <mxCell id="PAHui-X02Ao2DcyTZwbI-20" value="" style="edgeStyle=orthogonalEdgeStyle;rounded=0;orthogonalLoop=1;jettySize=auto;html=1;fontFamily=Verdana;fontSize=8;" parent="77e6c97f196da883-4" source="77e6c97f196da883-12" edge="1">
          <mxGeometry relative="1" as="geometry">
            <mxPoint x="80" y="161" as="targetPoint"/>
          </mxGeometry>
        </mxCell>
        <mxCell id="77e6c97f196da883-12" value="监听消息队列" style="rounded=1;whiteSpace=wrap;html=1;shadow=0;labelBackgroundColor=none;strokeColor=#000000;strokeWidth=1;fillColor=#ffffff;fontFamily=Verdana;fontSize=8;fontColor=#000000;align=center;" parent="77e6c97f196da883-4" vertex="1">
          <mxGeometry x="30" y="65" width="100" height="60" as="geometry"/>
        </mxCell>
        <mxCell id="PAHui-X02Ao2DcyTZwbI-4" value="加入缓存&lt;br&gt;异步持久化" style="shape=cylinder;whiteSpace=wrap;html=1;boundedLbl=1;backgroundOutline=1;rounded=1;shadow=0;strokeWidth=1;fontFamily=Verdana;fontSize=8;fillColor=#e1d5e7;strokeColor=#9673a6;" parent="77e6c97f196da883-4" vertex="1">
          <mxGeometry x="210" y="160" width="60" height="80" as="geometry"/>
        </mxCell>
        <mxCell id="PAHui-X02Ao2DcyTZwbI-12" value="&lt;b&gt;结束&lt;/b&gt;" style="strokeWidth=2;html=1;shape=mxgraph.flowchart.terminator;whiteSpace=wrap;rounded=1;shadow=0;fontFamily=Verdana;fontSize=8;fillColor=#dae8fc;strokeColor=#6c8ebf;" parent="77e6c97f196da883-4" vertex="1">
          <mxGeometry x="30" y="648" width="100" height="60" as="geometry"/>
        </mxCell>
        <mxCell id="PAHui-X02Ao2DcyTZwbI-22" value="" style="edgeStyle=orthogonalEdgeStyle;rounded=0;orthogonalLoop=1;jettySize=auto;html=1;fontFamily=Verdana;fontSize=8;" parent="77e6c97f196da883-4" source="PAHui-X02Ao2DcyTZwbI-21" target="PAHui-X02Ao2DcyTZwbI-4" edge="1">
          <mxGeometry relative="1" as="geometry"/>
        </mxCell>
        <mxCell id="PAHui-X02Ao2DcyTZwbI-25" value="" style="edgeStyle=orthogonalEdgeStyle;rounded=0;orthogonalLoop=1;jettySize=auto;html=1;fontFamily=Verdana;fontSize=8;" parent="77e6c97f196da883-4" source="PAHui-X02Ao2DcyTZwbI-21" target="PAHui-X02Ao2DcyTZwbI-4" edge="1">
          <mxGeometry relative="1" as="geometry"/>
        </mxCell>
        <mxCell id="Ku13lfJRVUN4UdWw_vCt-4" style="edgeStyle=orthogonalEdgeStyle;rounded=0;orthogonalLoop=1;jettySize=auto;html=1;entryX=0.5;entryY=0;entryDx=0;entryDy=0;entryPerimeter=0;" edge="1" parent="77e6c97f196da883-4" source="PAHui-X02Ao2DcyTZwbI-21" target="PAHui-X02Ao2DcyTZwbI-12">
          <mxGeometry relative="1" as="geometry">
            <mxPoint x="80" y="540" as="targetPoint"/>
            <Array as="points"/>
          </mxGeometry>
        </mxCell>
        <mxCell id="PAHui-X02Ao2DcyTZwbI-21" value="校验&lt;br&gt;订阅规则" style="rhombus;whiteSpace=wrap;html=1;rounded=1;shadow=0;strokeWidth=1;fontFamily=Verdana;fontSize=8;" parent="77e6c97f196da883-4" vertex="1">
          <mxGeometry x="40" y="160" width="80" height="80" as="geometry"/>
        </mxCell>
        <mxCell id="PAHui-X02Ao2DcyTZwbI-61" value="" style="edgeStyle=orthogonalEdgeStyle;rounded=0;orthogonalLoop=1;jettySize=auto;html=1;fontFamily=Verdana;fontSize=8;" parent="77e6c97f196da883-4" source="PAHui-X02Ao2DcyTZwbI-58" target="PAHui-X02Ao2DcyTZwbI-60" edge="1">
          <mxGeometry relative="1" as="geometry"/>
        </mxCell>
        <mxCell id="PAHui-X02Ao2DcyTZwbI-64" value="" style="edgeStyle=orthogonalEdgeStyle;rounded=0;orthogonalLoop=1;jettySize=auto;html=1;fontFamily=Verdana;fontSize=8;" parent="77e6c97f196da883-4" source="PAHui-X02Ao2DcyTZwbI-58" target="PAHui-X02Ao2DcyTZwbI-63" edge="1">
          <mxGeometry relative="1" as="geometry"/>
        </mxCell>
        <mxCell id="PAHui-X02Ao2DcyTZwbI-58" value="校验&lt;br&gt;合并推送条件" style="rhombus;whiteSpace=wrap;html=1;rounded=1;shadow=0;strokeWidth=1;fontFamily=Verdana;fontSize=8;" parent="77e6c97f196da883-4" vertex="1">
          <mxGeometry x="200" y="410" width="80" height="80" as="geometry"/>
        </mxCell>
        <mxCell id="PAHui-X02Ao2DcyTZwbI-60" value="组装推送数据" style="rounded=1;whiteSpace=wrap;html=1;shadow=0;labelBackgroundColor=none;strokeColor=#000000;strokeWidth=1;fillColor=#ffffff;fontFamily=Verdana;fontSize=8;fontColor=#000000;align=center;" parent="77e6c97f196da883-4" vertex="1">
          <mxGeometry x="330" y="420" width="100" height="60" as="geometry"/>
        </mxCell>
        <mxCell id="PAHui-X02Ao2DcyTZwbI-62" value="成功" style="text;html=1;resizable=0;points=[];autosize=1;align=left;verticalAlign=top;spacingTop=-4;fontSize=8;fontFamily=Verdana;" parent="77e6c97f196da883-4" vertex="1">
          <mxGeometry x="285" y="430" width="30" height="10" as="geometry"/>
        </mxCell>
        <mxCell id="PAHui-X02Ao2DcyTZwbI-67" value="" style="edgeStyle=orthogonalEdgeStyle;rounded=0;orthogonalLoop=1;jettySize=auto;html=1;fontFamily=Verdana;fontSize=8;" parent="77e6c97f196da883-4" source="PAHui-X02Ao2DcyTZwbI-63" target="PAHui-X02Ao2DcyTZwbI-66" edge="1">
          <mxGeometry relative="1" as="geometry"/>
        </mxCell>
        <mxCell id="PAHui-X02Ao2DcyTZwbI-63" value="存入缓存" style="rounded=1;whiteSpace=wrap;html=1;shadow=0;labelBackgroundColor=none;strokeColor=#000000;strokeWidth=1;fillColor=#ffffff;fontFamily=Verdana;fontSize=8;fontColor=#000000;align=center;" parent="77e6c97f196da883-4" vertex="1">
          <mxGeometry x="190" y="540" width="100" height="60" as="geometry"/>
        </mxCell>
        <mxCell id="PAHui-X02Ao2DcyTZwbI-66" value="&lt;b&gt;结束&lt;/b&gt;" style="strokeWidth=2;html=1;shape=mxgraph.flowchart.terminator;whiteSpace=wrap;rounded=1;shadow=0;fontFamily=Verdana;fontSize=8;fillColor=#dae8fc;strokeColor=#6c8ebf;" parent="77e6c97f196da883-4" vertex="1">
          <mxGeometry x="190" y="648" width="100" height="60" as="geometry"/>
        </mxCell>
        <mxCell id="PAHui-X02Ao2DcyTZwbI-105" value="" style="edgeStyle=orthogonalEdgeStyle;rounded=0;orthogonalLoop=1;jettySize=auto;html=1;fontFamily=Verdana;fontSize=8;" parent="77e6c97f196da883-4" source="PAHui-X02Ao2DcyTZwbI-103" target="PAHui-X02Ao2DcyTZwbI-104" edge="1">
          <mxGeometry relative="1" as="geometry"/>
        </mxCell>
        <mxCell id="PAHui-X02Ao2DcyTZwbI-103" value="更新推送结果" style="rounded=1;whiteSpace=wrap;html=1;shadow=0;labelBackgroundColor=none;strokeColor=#000000;strokeWidth=1;fillColor=#ffffff;fontFamily=Verdana;fontSize=8;fontColor=#000000;align=center;" parent="77e6c97f196da883-4" vertex="1">
          <mxGeometry x="330" y="540" width="100" height="60" as="geometry"/>
        </mxCell>
        <mxCell id="PAHui-X02Ao2DcyTZwbI-104" value="&lt;b&gt;结束&lt;/b&gt;" style="strokeWidth=2;html=1;shape=mxgraph.flowchart.terminator;whiteSpace=wrap;rounded=1;shadow=0;fontFamily=Verdana;fontSize=8;fillColor=#dae8fc;strokeColor=#6c8ebf;" parent="77e6c97f196da883-4" vertex="1">
          <mxGeometry x="330" y="648" width="100" height="60" as="geometry"/>
        </mxCell>
        <mxCell id="PAHui-X02Ao2DcyTZwbI-65" value="失败" style="text;html=1;resizable=0;points=[];autosize=1;align=left;verticalAlign=top;spacingTop=-4;fontSize=8;fontFamily=Verdana;" parent="77e6c97f196da883-4" vertex="1">
          <mxGeometry x="210" y="505" width="30" height="10" as="geometry"/>
        </mxCell>
        <mxCell id="PAHui-X02Ao2DcyTZwbI-26" value="成功" style="text;html=1;resizable=0;points=[];autosize=1;align=left;verticalAlign=top;spacingTop=-4;fontSize=8;fontFamily=Verdana;" parent="77e6c97f196da883-4" vertex="1">
          <mxGeometry x="150" y="200" width="30" height="10" as="geometry"/>
        </mxCell>
        <mxCell id="Ku13lfJRVUN4UdWw_vCt-14" value="" style="ellipse;html=1;shape=endState;fillColor=#000000;strokeColor=#ff0000;" vertex="1" parent="77e6c97f196da883-4">
          <mxGeometry x="65" y="50" width="30" height="30" as="geometry"/>
        </mxCell>
        <mxCell id="Ku13lfJRVUN4UdWw_vCt-15" value="" style="ellipse;html=1;shape=endState;fillColor=#000000;strokeColor=#ff0000;" vertex="1" parent="77e6c97f196da883-4">
          <mxGeometry x="365" y="465" width="30" height="30" as="geometry"/>
        </mxCell>
        <mxCell id="77e6c97f196da883-5" value="MNC" style="swimlane;html=1;startSize=20;" parent="77e6c97f196da883-1" vertex="1">
          <mxGeometry x="770" y="20" width="160" height="920" as="geometry"/>
        </mxCell>
        <mxCell id="PAHui-X02Ao2DcyTZwbI-71" value="mnc-http推送" style="shape=process;whiteSpace=wrap;html=1;backgroundOutline=1;rounded=1;shadow=0;strokeWidth=1;fontFamily=Verdana;fontSize=8;fillColor=#f5f5f5;strokeColor=#666666;fontColor=#333333;" parent="77e6c97f196da883-5" vertex="1">
          <mxGeometry x="20" y="420" width="120" height="60" as="geometry"/>
        </mxCell>
        <mxCell id="PAHui-X02Ao2DcyTZwbI-106" value="推送结果" style="rhombus;whiteSpace=wrap;html=1;rounded=1;shadow=0;strokeWidth=1;fontFamily=Verdana;fontSize=8;" parent="77e6c97f196da883-5" vertex="1">
          <mxGeometry x="39" y="530" width="80" height="80" as="geometry"/>
        </mxCell>
        <mxCell id="PAHui-X02Ao2DcyTZwbI-112" value="重试" style="text;html=1;resizable=0;points=[];autosize=1;align=left;verticalAlign=top;spacingTop=-4;fontSize=8;fontFamily=Verdana;" parent="77e6c97f196da883-5" vertex="1">
          <mxGeometry x="84" y="493" width="30" height="10" as="geometry"/>
        </mxCell>
        <mxCell id="PAHui-X02Ao2DcyTZwbI-113" value="" style="endArrow=classic;startArrow=classic;html=1;fontFamily=Verdana;fontSize=8;entryX=0.5;entryY=1;entryDx=0;entryDy=0;" parent="77e6c97f196da883-5" target="PAHui-X02Ao2DcyTZwbI-71" edge="1">
          <mxGeometry width="50" height="50" relative="1" as="geometry">
            <mxPoint x="80" y="531" as="sourcePoint"/>
            <mxPoint x="105" y="480" as="targetPoint"/>
          </mxGeometry>
        </mxCell>
        <mxCell id="Ku13lfJRVUN4UdWw_vCt-16" value="" style="ellipse;html=1;shape=endState;fillColor=#000000;strokeColor=#ff0000;" vertex="1" parent="77e6c97f196da883-5">
          <mxGeometry x="65" y="405" width="30" height="30" as="geometry"/>
        </mxCell>
        <mxCell id="Ku13lfJRVUN4UdWw_vCt-17" value="" style="ellipse;html=1;shape=endState;fillColor=#000000;strokeColor=#ff0000;" vertex="1" parent="77e6c97f196da883-5">
          <mxGeometry x="130" y="445" width="30" height="30" as="geometry"/>
        </mxCell>
        <mxCell id="77e6c97f196da883-6" value="VCC" style="swimlane;html=1;startSize=20;" parent="77e6c97f196da883-1" vertex="1">
          <mxGeometry x="930" y="20" width="160" height="920" as="geometry"/>
        </mxCell>
        <mxCell id="PAHui-X02Ao2DcyTZwbI-99" value="&lt;b&gt;结束&lt;/b&gt;" style="strokeWidth=2;html=1;shape=mxgraph.flowchart.terminator;whiteSpace=wrap;rounded=1;shadow=0;fontFamily=Verdana;fontSize=8;fillColor=#dae8fc;strokeColor=#6c8ebf;" parent="77e6c97f196da883-6" vertex="1">
          <mxGeometry x="40" y="420" width="100" height="60" as="geometry"/>
        </mxCell>
        <mxCell id="PAHui-X02Ao2DcyTZwbI-3" value="" style="edgeStyle=orthogonalEdgeStyle;rounded=0;orthogonalLoop=1;jettySize=auto;html=1;fontFamily=Verdana;fontSize=8;" parent="77e6c97f196da883-1" source="77e6c97f196da883-12" target="77e6c97f196da883-11" edge="1">
          <mxGeometry relative="1" as="geometry"/>
        </mxCell>
        <mxCell id="PAHui-X02Ao2DcyTZwbI-72" value="" style="edgeStyle=orthogonalEdgeStyle;rounded=0;orthogonalLoop=1;jettySize=auto;html=1;fontFamily=Verdana;fontSize=8;" parent="77e6c97f196da883-1" source="PAHui-X02Ao2DcyTZwbI-60" target="PAHui-X02Ao2DcyTZwbI-71" edge="1">
          <mxGeometry relative="1" as="geometry"/>
        </mxCell>
        <mxCell id="PAHui-X02Ao2DcyTZwbI-100" value="" style="edgeStyle=orthogonalEdgeStyle;rounded=0;orthogonalLoop=1;jettySize=auto;html=1;fontFamily=Verdana;fontSize=8;" parent="77e6c97f196da883-1" source="PAHui-X02Ao2DcyTZwbI-71" target="PAHui-X02Ao2DcyTZwbI-99" edge="1">
          <mxGeometry relative="1" as="geometry"/>
        </mxCell>
        <mxCell id="PAHui-X02Ao2DcyTZwbI-107" value="" style="edgeStyle=orthogonalEdgeStyle;rounded=0;orthogonalLoop=1;jettySize=auto;html=1;fontFamily=Verdana;fontSize=8;" parent="77e6c97f196da883-1" source="PAHui-X02Ao2DcyTZwbI-106" target="PAHui-X02Ao2DcyTZwbI-103" edge="1">
          <mxGeometry relative="1" as="geometry"/>
        </mxCell>
        <mxCell id="PAHui-X02Ao2DcyTZwbI-59" value="" style="edgeStyle=orthogonalEdgeStyle;rounded=0;orthogonalLoop=1;jettySize=auto;html=1;fontFamily=Verdana;fontSize=8;" parent="1" source="PAHui-X02Ao2DcyTZwbI-56" target="PAHui-X02Ao2DcyTZwbI-58" edge="1">
          <mxGeometry relative="1" as="geometry"/>
        </mxCell>
        <mxCell id="Ku13lfJRVUN4UdWw_vCt-7" style="edgeStyle=orthogonalEdgeStyle;rounded=0;orthogonalLoop=1;jettySize=auto;html=1;entryX=0.5;entryY=0;entryDx=0;entryDy=0;" edge="1" parent="1" source="PAHui-X02Ao2DcyTZwbI-56" target="PAHui-X02Ao2DcyTZwbI-60">
          <mxGeometry relative="1" as="geometry"/>
        </mxCell>
        <mxCell id="Ku13lfJRVUN4UdWw_vCt-10" value="单条消息" style="text;html=1;resizable=0;points=[];align=center;verticalAlign=middle;labelBackgroundColor=#ffffff;" vertex="1" connectable="0" parent="Ku13lfJRVUN4UdWw_vCt-7">
          <mxGeometry x="-0.1261" y="-1" relative="1" as="geometry">
            <mxPoint as="offset"/>
          </mxGeometry>
        </mxCell>
        <mxCell id="PAHui-X02Ao2DcyTZwbI-56" value="&lt;b&gt;异步推送开始&lt;/b&gt;" style="shape=parallelogram;perimeter=parallelogramPerimeter;whiteSpace=wrap;html=1;rounded=1;shadow=0;strokeWidth=1;fontFamily=Verdana;fontSize=8;" parent="1" vertex="1">
          <mxGeometry x="560" y="357" width="120" height="60" as="geometry"/>
        </mxCell>
        <mxCell id="PAHui-X02Ao2DcyTZwbI-111" value="失败" style="text;html=1;resizable=0;points=[];autosize=1;align=left;verticalAlign=top;spacingTop=-4;fontSize=8;fontFamily=Verdana;" parent="1" vertex="1">
          <mxGeometry x="889" y="552" width="30" height="10" as="geometry"/>
        </mxCell>
        <mxCell id="Ku13lfJRVUN4UdWw_vCt-1" value="" style="edgeStyle=orthogonalEdgeStyle;rounded=0;orthogonalLoop=1;jettySize=auto;html=1;" edge="1" parent="1" source="PAHui-X02Ao2DcyTZwbI-4" target="PAHui-X02Ao2DcyTZwbI-56">
          <mxGeometry relative="1" as="geometry"/>
        </mxCell>
        <mxCell id="Ku13lfJRVUN4UdWw_vCt-6" value="失败" style="text;html=1;resizable=0;points=[];autosize=1;align=left;verticalAlign=top;spacingTop=-4;" vertex="1" parent="1">
          <mxGeometry x="448" y="467" width="40" height="20" as="geometry"/>
        </mxCell>
        <mxCell id="Ku13lfJRVUN4UdWw_vCt-9" value="合并消息" style="text;html=1;resizable=0;points=[];autosize=1;align=left;verticalAlign=top;spacingTop=-4;" vertex="1" parent="1">
          <mxGeometry x="611" y="434" width="60" height="20" as="geometry"/>
        </mxCell>
      </root>
    </mxGraphModel>
  </diagram>
</mxfile>
